<svg width="500" height="500" viewBox="0 0 500 500" xmlns="http://www.w3.org/2000/svg"><title>September</title><mask id="satori_om-id"><rect x="0" y="0" width="500" height="500" fill="#fff"/></mask><defs><clipPath id="satori_bc-id-0"><path x="30" y="30" width="440" height="440" d="M126,30 h248 a96,96 0 0 1 96,96 v248 a96,96 0 0 1 -96,96 h-248 a96,96 0 0 1 -96,-96 v-248 a96,96 0 0 1 96,-96"/></clipPath></defs><mask id="satori_om-id-0"><rect x="37" y="37" width="426" height="426" fill="#fff"/><path width="440" height="440" fill="none" stroke="#000" stroke-width="14" d="M58.117999999999995,58.117999999999995 A96,96 0 0 1 126,30 h248 a96,96 0 0 1 96,96 v248 a96,96 0 0 1 -96,96 h-248 a96,96 0 0 1 -96,-96 v-248 A96,96 0 0 1 58.117999999999995,58.117999999999995"/></mask><path x="30" y="30" width="440" height="440" fill="#4f46e5" d="M126,30 h248 a96,96 0 0 1 96,96 v248 a96,96 0 0 1 -96,96 h-248 a96,96 0 0 1 -96,-96 v-248 a96,96 0 0 1 96,-96"/><path width="440" height="440" clip-path="url(#satori_bc-id-0)" fill="none" stroke="#4338ca" stroke-width="14" d="M58.117999999999995,58.117999999999995 A96,96 0 0 1 126,30 h248 a96,96 0 0 1 96,96 v248 a96,96 0 0 1 -96,96 h-248 a96,96 0 0 1 -96,-96 v-248 A96,96 0 0 1 58.117999999999995,58.117999999999995"/><defs><clipPath id="satori_bc-id-0-0"><path x="63" y="63" width="374" height="374" d="M133,63 h234 a70,70 0 0 1 70,70 v234 a70,70 0 0 1 -70,70 h-234 a70,70 0 0 1 -70,-70 v-234 a70,70 0 0 1 70,-70"/></clipPath></defs><mask id="satori_om-id-0-0"><rect x="74" y="74" width="352" height="352" fill="#fff"/><path width="374" height="374" fill="none" stroke="#000" stroke-width="22" d="M83.503,83.503 A70,70 0 0 1 133,63 h234 a70,70 0 0 1 70,70 v234 a70,70 0 0 1 -70,70 h-234 a70,70 0 0 1 -70,-70 v-234 A70,70 0 0 1 83.503,83.503"/></mask><path x="63" y="63" width="374" height="374" fill="#ffffff" d="M133,63 h234 a70,70 0 0 1 70,70 v234 a70,70 0 0 1 -70,70 h-234 a70,70 0 0 1 -70,-70 v-234 a70,70 0 0 1 70,-70"/><path width="374" height="374" clip-path="url(#satori_bc-id-0-0)" fill="none" stroke="#c7d2fe" stroke-width="22" d="M83.503,83.503 A70,70 0 0 1 133,63 h234 a70,70 0 0 1 70,70 v234 a70,70 0 0 1 -70,70 h-234 a70,70 0 0 1 -70,-70 v-234 A70,70 0 0 1 83.503,83.503"/><g  ><path fill="#4f46e5" d="M161.3 317.8L161.3 317.8Q149.2 317.8 139.4 314.9Q129.6 312.0 122.1 306.4Q114.5 300.9 108.5 293.3L108.5 293.3L126.6 272.7Q135.4 284.5 144.3 288.5Q153.2 292.6 162.7 292.6L162.7 292.6Q167.5 292.6 171.4 291.4Q175.2 290.1 177.3 287.8Q179.4 285.4 179.4 281.9L179.4 281.9Q179.4 279.2 178.1 277.1Q176.8 275.0 174.5 273.4Q172.2 271.8 169.1 270.5Q165.9 269.2 162.4 268.2Q158.9 267.2 155.2 266.5L155.2 266.5Q145.0 264.3 137.4 260.9Q129.8 257.6 124.8 252.7Q119.8 247.9 117.3 241.6Q114.9 235.4 114.9 227.6L114.9 227.6Q114.9 219.4 118.6 212.4Q122.4 205.5 128.8 200.5Q135.3 195.4 143.7 192.7Q152.2 190.0 161.3 190.0L161.3 190.0Q173.5 190.0 182.2 192.5Q190.9 195.1 197.1 199.8Q203.4 204.6 207.8 211.3L207.8 211.3L189.3 229.1Q185.6 224.5 181.3 221.5Q177.0 218.5 172.1 216.9Q167.3 215.3 162.2 215.3L162.2 215.3Q156.9 215.3 153.1 216.6Q149.4 218.0 147.2 220.3Q145.1 222.7 145.1 226.1L145.1 226.1Q145.1 229.1 146.9 231.2Q148.6 233.3 151.6 235.0Q154.6 236.6 158.5 237.8Q162.4 238.9 166.6 239.6L166.6 239.6Q176.3 241.6 184.1 244.7Q191.9 247.9 197.7 252.5Q203.4 257.0 206.5 263.3Q209.5 269.5 209.5 277.8L209.5 277.8Q209.5 290.7 203.3 299.5Q197.0 308.4 186.2 313.1Q175.4 317.8 161.3 317.8ZM259.6 317.8L259.6 317.8Q244.1 317.8 232.7 311.5Q221.2 305.3 214.9 294.4Q208.6 283.6 208.6 269.7L208.6 269.7Q208.6 259.0 212.1 250Q215.6 241.0 221.9 234.4Q228.3 227.8 237.0 224.2Q245.7 220.6 256.1 220.6L256.1 220.6Q265.9 220.6 274.1 224.1Q282.3 227.6 288.3 234.0Q294.3 240.3 297.4 248.9Q300.6 257.6 300.3 267.8L300.3 267.8L300.1 275.3L235.8 275.3Q236.7 278.3 238.3 281.0L238.3 281.0Q241.5 286.8 247.7 290.0Q254.0 293.1 262.6 293.1L262.6 293.1Q268.6 293.1 273.2 291.4Q277.9 289.6 283.4 285.4L283.4 285.4L296.6 304.0Q291.1 308.8 285.0 311.8Q278.8 314.8 272.4 316.3Q265.9 317.8 259.6 317.8ZM235.8 259.5L235.8 259.5L274.2 259.5L274.2 259.3Q273.9 254.9 271.5 251.5Q269.1 248.1 265.2 246.1Q261.4 244.2 256.4 244.2L256.4 244.2Q249.6 244.2 244.7 246.9Q239.9 249.6 237.4 254.8L237.4 254.8Q236.4 257.0 235.8 259.5ZM332.6 354.7L304.2 354.7L304.2 222.5L331.0 222.5L331.5 232.8Q332.0 232.0 332.7 231.3L332.7 231.3Q337.5 226.6 344.8 223.7Q352.1 220.8 360.2 220.8L360.2 220.8Q372.2 220.8 381.5 227.0Q390.8 233.3 396.2 244.1Q401.5 254.9 401.5 269.2L401.5 269.2Q401.5 283.3 396.2 294.2Q390.8 305.1 381.4 311.3Q372.0 317.6 359.8 317.6L359.8 317.6Q351.9 317.6 344.7 314.6Q337.5 311.6 332.6 306.5L332.6 306.5L332.6 354.7ZM353.0 293.8L353.0 293.8Q359.3 293.8 364.1 290.7Q368.8 287.7 371.4 282.2Q374.1 276.8 374.1 269.2L374.1 269.2Q374.1 261.8 371.4 256.2Q368.8 250.7 364.1 247.6Q359.5 244.5 353.0 244.5Q346.5 244.5 341.7 247.5Q337.0 250.5 334.3 256.2Q331.7 261.8 331.7 269.2L331.7 269.2Q331.7 276.8 334.3 282.2Q337.0 287.7 341.7 290.7Q346.5 293.8 353.0 293.8Z "/></g></svg>